<svg width="115" height="26" viewBox="0 0 115 26" fill="none" xmlns="http://www.w3.org/2000/svg">
<path fill-rule="evenodd" clip-rule="evenodd" d="M5.56001 24.9999V19.6559L7.48001 17.5439L11.928 24.9999H17.368L11.064 14.5679L17.4 7.52788H11.48L5.56001 13.8319V0.775879H0.76001V24.9999H5.56001ZM24.92 25.3839C27.096 25.3839 28.8453 24.7119 30.168 23.3679V24.9999H34.648V13.4799C34.648 12.2212 34.3333 11.1172 33.704 10.1679C33.0747 9.21855 32.1947 8.47721 31.064 7.94388C29.9333 7.41055 28.632 7.14388 27.16 7.14388C25.304 7.14388 23.6773 7.57055 22.28 8.42388C20.8827 9.27721 19.928 10.4292 19.416 11.8799L23.256 13.7039C23.5547 12.9359 24.0293 12.3172 24.68 11.8479C25.3307 11.3785 26.0827 11.1439 26.936 11.1439C27.832 11.1439 28.5413 11.3679 29.064 11.8159C29.5867 12.2639 29.848 12.8185 29.848 13.4799V13.9599L25.016 14.7279C22.9253 15.0692 21.368 15.7199 20.344 16.6799C19.32 17.6399 18.808 18.8559 18.808 20.3279C18.808 21.9065 19.3573 23.1439 20.456 24.0399C21.5547 24.9359 23.0427 25.3839 24.92 25.3839ZM24.376 21.4159C24.7813 21.7145 25.2827 21.8639 25.88 21.8639C27.0747 21.8639 28.0347 21.4905 28.76 20.7439C29.4853 19.9972 29.848 19.0905 29.848 18.0239V17.4799L25.88 18.1839C25.1973 18.3119 24.6747 18.5305 24.312 18.8399C23.9493 19.1492 23.768 19.5919 23.768 20.1679C23.768 20.7012 23.9707 21.1172 24.376 21.4159ZM42.968 24.9999V14.7919C42.968 13.7892 43.2667 12.9839 43.864 12.3759C44.4613 11.7679 45.2293 11.4639 46.168 11.4639C47.1067 11.4639 47.8747 11.7679 48.472 12.3759C49.0693 12.9839 49.368 13.7892 49.368 14.7919V24.9999H54.168V13.7679C54.168 12.4452 53.8907 11.2879 53.336 10.2959C52.7813 9.30388 52.008 8.53055 51.016 7.97588C50.024 7.42121 48.8667 7.14388 47.544 7.14388C46.4347 7.14388 45.4533 7.35188 44.6 7.76788C43.7467 8.18388 43.096 8.81855 42.648 9.67188V7.52788H38.168V24.9999H42.968ZM71.704 24.1679C70.36 24.9785 68.8347 25.3839 67.128 25.3839C66.0613 25.3839 65.064 25.2079 64.136 24.8559C63.208 24.5039 62.4347 23.9972 61.816 23.3359V24.9999H57.336V0.775879H62.136V8.99988C63.3733 7.76255 65.048 7.14388 67.16 7.14388C68.824 7.14388 70.328 7.54921 71.672 8.35988C73.016 9.17055 74.0827 10.2639 74.872 11.6399C75.6613 13.0159 76.056 14.5572 76.056 16.2639C76.056 17.9492 75.6667 19.4852 74.888 20.8719C74.1093 22.2585 73.048 23.3572 71.704 24.1679ZM66.552 21.0639C65.2507 21.0639 64.1893 20.6212 63.368 19.7359C62.5467 18.8505 62.136 17.6932 62.136 16.2639C62.136 14.8559 62.5467 13.7039 63.368 12.8079C64.1893 11.9119 65.2507 11.4639 66.552 11.4639C67.8747 11.4639 68.9627 11.9172 69.816 12.8239C70.6693 13.7305 71.096 14.8772 71.096 16.2639C71.096 17.6719 70.6693 18.8239 69.816 19.7199C68.9627 20.6159 67.8747 21.0639 66.552 21.0639ZM89.528 23.3679C88.2053 24.7119 86.456 25.3839 84.28 25.3839C82.4027 25.3839 80.9147 24.9359 79.816 24.0399C78.7173 23.1439 78.168 21.9065 78.168 20.3279C78.168 18.8559 78.68 17.6399 79.704 16.6799C80.728 15.7199 82.2853 15.0692 84.376 14.7279L89.208 13.9599V13.4799C89.208 12.8185 88.9467 12.2639 88.424 11.8159C87.9013 11.3679 87.192 11.1439 86.296 11.1439C85.4427 11.1439 84.6907 11.3785 84.04 11.8479C83.3893 12.3172 82.9147 12.9359 82.616 13.7039L78.776 11.8799C79.288 10.4292 80.2427 9.27721 81.64 8.42388C83.0373 7.57055 84.664 7.14388 86.52 7.14388C87.992 7.14388 89.2933 7.41055 90.424 7.94388C91.5547 8.47721 92.4347 9.21855 93.064 10.1679C93.6933 11.1172 94.008 12.2212 94.008 13.4799V24.9999H89.528V23.3679ZM85.24 21.8639C84.6427 21.8639 84.1413 21.7145 83.736 21.4159C83.3307 21.1172 83.128 20.7012 83.128 20.1679C83.128 19.5919 83.3093 19.1492 83.672 18.8399C84.0347 18.5305 84.5573 18.3119 85.24 18.1839L89.208 17.4799V18.0239C89.208 19.0905 88.8453 19.9972 88.12 20.7439C87.3947 21.4905 86.4347 21.8639 85.24 21.8639ZM102.328 14.7919V24.9999H97.528V7.52788H102.008V9.67188C102.456 8.81855 103.107 8.18388 103.96 7.76788C104.813 7.35188 105.795 7.14388 106.904 7.14388C108.227 7.14388 109.384 7.42121 110.376 7.97588C111.368 8.53055 112.141 9.30388 112.696 10.2959C113.251 11.2879 113.528 12.4452 113.528 13.7679V24.9999H108.728V14.7919C108.728 13.7892 108.429 12.9839 107.832 12.3759C107.235 11.7679 106.467 11.4639 105.528 11.4639C104.589 11.4639 103.821 11.7679 103.224 12.3759C102.627 12.9839 102.328 13.7892 102.328 14.7919Z" fill="#000112"/>
<path d="M5.56001 19.6559L5.19004 19.3195L5.06001 19.4626V19.6559H5.56001ZM5.56001 24.9999V25.4999H6.06001V24.9999H5.56001ZM7.48001 17.5439L7.90941 17.2877L7.5638 16.7084L7.11004 17.2075L7.48001 17.5439ZM11.928 24.9999L11.4986 25.256L11.6441 25.4999H11.928V24.9999ZM17.368 24.9999V25.4999H18.2544L17.7959 24.7413L17.368 24.9999ZM11.064 14.5679L10.6924 14.2334L10.4443 14.5091L10.6361 14.8265L11.064 14.5679ZM17.4 7.52788L17.7717 7.86236L18.5227 7.02788H17.4V7.52788ZM11.48 7.52788V7.02788H11.2636L11.1155 7.1856L11.48 7.52788ZM5.56001 13.8319H5.06001V15.0947L5.92449 14.1742L5.56001 13.8319ZM5.56001 0.775879H6.06001V0.275879H5.56001V0.775879ZM0.76001 0.775879V0.275879H0.26001V0.775879H0.76001ZM0.76001 24.9999H0.26001V25.4999H0.76001V24.9999ZM30.168 23.3679H30.668V22.147L29.8116 23.0172L30.168 23.3679ZM30.168 24.9999H29.668V25.4999H30.168V24.9999ZM34.648 24.9999V25.4999H35.148V24.9999H34.648ZM31.064 7.94388L31.2773 7.49166L31.2773 7.49166L31.064 7.94388ZM22.28 8.42388L22.0194 7.99716L22.0194 7.99716L22.28 8.42388ZM19.416 11.8799L18.9445 11.7135L18.7946 12.1382L19.2015 12.3315L19.416 11.8799ZM23.256 13.7039L23.0415 14.1555L23.5271 14.3862L23.722 13.8851L23.256 13.7039ZM24.68 11.8479L24.3875 11.4424L24.3875 11.4424L24.68 11.8479ZM29.064 11.8159L29.3894 11.4363L29.3894 11.4363L29.064 11.8159ZM29.848 13.9599L29.9265 14.4537L30.348 14.3867V13.9599H29.848ZM25.016 14.7279L24.9375 14.2341L24.9354 14.2344L25.016 14.7279ZM20.456 24.0399L20.772 23.6524L20.772 23.6524L20.456 24.0399ZM24.376 21.4159L24.0794 21.8184L24.0794 21.8184L24.376 21.4159ZM28.76 20.7439L29.1186 21.0923L29.1186 21.0923L28.76 20.7439ZM29.848 17.4799H30.348V16.8834L29.7607 16.9876L29.848 17.4799ZM25.88 18.1839L25.7927 17.6915L25.7879 17.6924L25.88 18.1839ZM24.312 18.8399L24.6365 19.2203L24.6365 19.2203L24.312 18.8399ZM42.968 24.9999V25.4999H43.468V24.9999H42.968ZM43.864 12.3759L43.5073 12.0255L43.5073 12.0255L43.864 12.3759ZM48.472 12.3759L48.8287 12.0255L48.8287 12.0255L48.472 12.3759ZM49.368 24.9999H48.868V25.4999H49.368V24.9999ZM54.168 24.9999V25.4999H54.668V24.9999H54.168ZM53.336 10.2959L52.8996 10.5399L52.8996 10.5399L53.336 10.2959ZM51.016 7.97588L51.26 7.53947L51.26 7.53947L51.016 7.97588ZM42.648 9.67188H42.148L43.0907 9.9043L42.648 9.67188ZM42.648 7.52788H43.148V7.02788H42.648V7.52788ZM38.168 7.52788V7.02788H37.668V7.52788H38.168ZM38.168 24.9999H37.668V25.4999H38.168V24.9999ZM64.136 24.8559L63.9587 25.3234L63.9587 25.3234L64.136 24.8559ZM61.816 23.3359L62.1811 22.9943L61.316 22.0695V23.3359H61.816ZM61.816 24.9999V25.4999H62.316V24.9999H61.816ZM57.336 24.9999H56.836V25.4999H57.336V24.9999ZM57.336 0.775879V0.275879H56.836V0.775879H57.336ZM62.136 0.775879H62.636V0.275879H62.136V0.775879ZM62.136 8.99988H61.636V10.207L62.4896 9.35343L62.136 8.99988ZM74.888 20.8719L74.452 20.6271L74.452 20.6271L74.888 20.8719ZM63.368 19.7359L63.0015 20.0759L63.0015 20.0759L63.368 19.7359ZM63.368 12.8079L62.9994 12.47L62.9994 12.47L63.368 12.8079ZM69.816 19.7199L70.1781 20.0647L70.1781 20.0647L69.816 19.7199ZM89.528 23.3679H90.028V22.147L89.1716 23.0172L89.528 23.3679ZM79.816 24.0399L80.132 23.6524L80.132 23.6524L79.816 24.0399ZM79.704 16.6799L80.046 17.0446L80.046 17.0446L79.704 16.6799ZM84.376 14.7279L84.2975 14.2341L84.2954 14.2344L84.376 14.7279ZM89.208 13.9599L89.2865 14.4537L89.708 14.3867V13.9599H89.208ZM84.04 11.8479L84.3325 12.2534L84.3325 12.2534L84.04 11.8479ZM82.616 13.7039L82.4015 14.1555L82.8871 14.3862L83.082 13.8851L82.616 13.7039ZM78.776 11.8799L78.3045 11.7135L78.1546 12.1382L78.5615 12.3315L78.776 11.8799ZM81.64 8.42388L81.3794 7.99716L81.3794 7.99716L81.64 8.42388ZM90.424 7.94388L90.2107 8.39609L90.2107 8.3961L90.424 7.94388ZM93.064 10.1679L93.4808 9.89161L93.4808 9.89161L93.064 10.1679ZM94.008 24.9999V25.4999H94.508V24.9999H94.008ZM89.528 24.9999H89.028V25.4999H89.528V24.9999ZM83.736 21.4159L83.4394 21.8184L83.4394 21.8184L83.736 21.4159ZM83.672 18.8399L83.3475 18.4595L83.3475 18.4595L83.672 18.8399ZM85.24 18.1839L85.1527 17.6915L85.1479 17.6924L85.24 18.1839ZM89.208 17.4799H89.708V16.8834L89.1207 16.9876L89.208 17.4799ZM88.12 20.7439L87.7614 20.3955L87.7614 20.3955L88.12 20.7439ZM102.328 24.9999V25.4999H102.828V24.9999H102.328ZM97.528 24.9999H97.028V25.4999H97.528V24.9999ZM97.528 7.52788V7.02788H97.028V7.52788H97.528ZM102.008 7.52788H102.508V7.02788H102.008V7.52788ZM102.008 9.67188H101.508L102.451 9.90429L102.008 9.67188ZM110.376 7.97588L110.62 7.53947L110.62 7.53947L110.376 7.97588ZM112.696 10.2959L112.26 10.5399L112.26 10.5399L112.696 10.2959ZM113.528 24.9999V25.4999H114.028V24.9999H113.528ZM108.728 24.9999H108.228V25.4999H108.728V24.9999ZM107.832 12.3759L107.475 12.7263L107.475 12.7263L107.832 12.3759ZM103.224 12.3759L103.581 12.7263L103.581 12.7263L103.224 12.3759ZM5.06001 19.6559V24.9999H6.06001V19.6559H5.06001ZM7.11004 17.2075L5.19004 19.3195L5.92998 19.9922L7.84998 17.8802L7.11004 17.2075ZM12.3574 24.7437L7.90941 17.2877L7.05061 17.8L11.4986 25.256L12.3574 24.7437ZM17.368 24.4999H11.928V25.4999H17.368V24.4999ZM10.6361 14.8265L16.9401 25.2585L17.7959 24.7413L11.4919 14.3093L10.6361 14.8265ZM17.0284 7.1934L10.6924 14.2334L11.4357 14.9024L17.7717 7.86236L17.0284 7.1934ZM11.48 8.02788H17.4V7.02788H11.48V8.02788ZM5.92449 14.1742L11.8445 7.87016L11.1155 7.1856L5.19553 13.4896L5.92449 14.1742ZM5.06001 0.775879V13.8319H6.06001V0.775879H5.06001ZM0.76001 1.27588H5.56001V0.275879H0.76001V1.27588ZM1.26001 24.9999V0.775879H0.26001V24.9999H1.26001ZM5.56001 24.4999H0.76001V25.4999H5.56001V24.4999ZM29.8116 23.0172C28.5976 24.2508 26.9844 24.8839 24.92 24.8839V25.8839C27.2076 25.8839 29.0931 25.173 30.5244 23.7186L29.8116 23.0172ZM30.668 24.9999V23.3679H29.668V24.9999H30.668ZM34.648 24.4999H30.168V25.4999H34.648V24.4999ZM34.148 13.4799V24.9999H35.148V13.4799H34.148ZM33.2873 10.4441C33.8567 11.3031 34.148 12.3087 34.148 13.4799H35.148C35.148 12.1337 34.81 10.9314 34.1208 9.89161L33.2873 10.4441ZM30.8507 8.39609C31.9071 8.89439 32.7133 9.57826 33.2873 10.4441L34.1208 9.89161C33.4361 8.85883 32.4823 8.06004 31.2773 7.49166L30.8507 8.39609ZM27.16 7.64388C28.5712 7.64388 29.7976 7.89933 30.8507 8.39609L31.2773 7.49166C30.0691 6.92176 28.6928 6.64388 27.16 6.64388V7.64388ZM22.5406 8.8506C23.8494 8.05134 25.3834 7.64388 27.16 7.64388V6.64388C25.2246 6.64388 23.5053 7.08975 22.0194 7.99716L22.5406 8.8506ZM19.8875 12.0463C20.3587 10.7113 21.2346 9.64815 22.5406 8.8506L22.0194 7.99716C20.5307 8.90628 19.4974 10.1471 18.9445 11.7135L19.8875 12.0463ZM23.4705 13.2522L19.6305 11.4282L19.2015 12.3315L23.0415 14.1555L23.4705 13.2522ZM24.3875 11.4424C23.6564 11.9697 23.1226 12.6673 22.79 13.5227L23.722 13.8851C23.9867 13.2045 24.4023 12.6647 24.9725 12.2534L24.3875 11.4424ZM26.936 10.6439C25.9848 10.6439 25.1289 10.9076 24.3875 11.4424L24.9725 12.2534C25.5324 11.8495 26.1806 11.6439 26.936 11.6439V10.6439ZM29.3894 11.4363C28.7517 10.8896 27.9147 10.6439 26.936 10.6439V11.6439C27.7493 11.6439 28.331 11.8461 28.7386 12.1955L29.3894 11.4363ZM30.348 13.4799C30.348 12.6659 30.0177 11.9748 29.3894 11.4363L28.7386 12.1955C29.1556 12.553 29.348 12.9712 29.348 13.4799H30.348ZM30.348 13.9599V13.4799H29.348V13.9599H30.348ZM25.0945 15.2217L29.9265 14.4537L29.7695 13.4661L24.9375 14.2341L25.0945 15.2217ZM20.686 17.0446C21.6094 16.179 23.0572 15.5543 25.0966 15.2213L24.9354 14.2344C22.7935 14.5841 21.1267 15.2608 20.002 16.3151L20.686 17.0446ZM19.308 20.3279C19.308 18.9865 19.7682 17.9051 20.686 17.0446L20.002 16.3151C18.8718 17.3747 18.308 18.7252 18.308 20.3279H19.308ZM20.772 23.6524C19.804 22.8629 19.308 21.7756 19.308 20.3279H18.308C18.308 22.0375 18.9107 23.4248 20.14 24.4274L20.772 23.6524ZM24.92 24.8839C23.1203 24.8839 21.7561 24.455 20.772 23.6524L20.14 24.4274C21.3532 25.4168 22.9651 25.8839 24.92 25.8839V24.8839ZM25.88 21.3639C25.3689 21.3639 24.9769 21.2375 24.6726 21.0134L24.0794 21.8184C24.5858 22.1916 25.1964 22.3639 25.88 22.3639V21.3639ZM28.4014 20.3955C27.7843 21.0307 26.9613 21.3639 25.88 21.3639V22.3639C27.188 22.3639 28.285 21.9504 29.1186 21.0923L28.4014 20.3955ZM29.348 18.0239C29.348 18.964 29.0336 19.7447 28.4014 20.3955L29.1186 21.0923C29.9371 20.2498 30.348 19.2171 30.348 18.0239H29.348ZM29.348 17.4799V18.0239H30.348V17.4799H29.348ZM25.9674 18.6762L29.9354 17.9722L29.7607 16.9876L25.7927 17.6916L25.9674 18.6762ZM24.6365 19.2203C24.9092 18.9877 25.3386 18.7941 25.9722 18.6753L25.7879 17.6924C25.0561 17.8297 24.4402 18.0734 23.9875 18.4595L24.6365 19.2203ZM24.268 20.1679C24.268 19.7048 24.4083 19.4149 24.6365 19.2203L23.9875 18.4595C23.4903 18.8835 23.268 19.4789 23.268 20.1679H24.268ZM24.6726 21.0134C24.4038 20.8153 24.268 20.5534 24.268 20.1679H23.268C23.268 20.8491 23.5376 21.4191 24.0794 21.8184L24.6726 21.0134ZM42.468 14.7919V24.9999H43.468V14.7919H42.468ZM43.5073 12.0255C42.8021 12.7433 42.468 13.683 42.468 14.7919H43.468C43.468 13.8955 43.7313 13.2245 44.2207 12.7263L43.5073 12.0255ZM46.168 10.9639C45.1102 10.9639 44.2087 11.3116 43.5073 12.0255L44.2207 12.7263C44.714 12.2242 45.3485 11.9639 46.168 11.9639V10.9639ZM48.8287 12.0255C48.1273 11.3116 47.2259 10.9639 46.168 10.9639V11.9639C46.9875 11.9639 47.622 12.2242 48.1153 12.7263L48.8287 12.0255ZM49.868 14.7919C49.868 13.683 49.5339 12.7433 48.8287 12.0255L48.1153 12.7263C48.6048 13.2245 48.868 13.8955 48.868 14.7919H49.868ZM49.868 24.9999V14.7919H48.868V24.9999H49.868ZM54.168 24.4999H49.368V25.4999H54.168V24.4999ZM53.668 13.7679V24.9999H54.668V13.7679H53.668ZM52.8996 10.5399C53.4062 11.4459 53.668 12.5165 53.668 13.7679H54.668C54.668 12.3739 54.3752 11.1298 53.7724 10.0519L52.8996 10.5399ZM50.772 8.41229C51.6833 8.92184 52.39 9.62858 52.8996 10.5399L53.7724 10.0519C53.1726 8.97918 52.3327 8.13925 51.26 7.53947L50.772 8.41229ZM47.544 7.64388C48.7953 7.64388 49.866 7.9057 50.772 8.41229L51.26 7.53947C50.182 6.93673 48.938 6.64388 47.544 6.64388V7.64388ZM44.8191 8.21732C45.5936 7.83976 46.4979 7.64388 47.544 7.64388V6.64388C46.3715 6.64388 45.3131 6.864 44.3809 7.31844L44.8191 8.21732ZM43.0907 9.9043C43.49 9.14373 44.0631 8.58588 44.8191 8.21732L44.3809 7.31844C43.4303 7.78188 42.702 8.49336 42.2053 9.43946L43.0907 9.9043ZM42.148 7.52788V9.67188H43.148V7.52788H42.148ZM38.168 8.02788H42.648V7.02788H38.168V8.02788ZM38.668 24.9999V7.52788H37.668V24.9999H38.668ZM42.968 24.4999H38.168V25.4999H42.968V24.4999ZM67.128 25.8839C68.9175 25.8839 70.5336 25.4578 71.9623 24.596L71.4458 23.7397C70.1865 24.4993 68.7519 24.8839 67.128 24.8839V25.8839ZM63.9587 25.3234C64.9474 25.6984 66.0053 25.8839 67.128 25.8839V24.8839C66.1174 24.8839 65.1806 24.7173 64.3133 24.3884L63.9587 25.3234ZM61.4509 23.6775C62.1266 24.3997 62.9662 24.9469 63.9587 25.3234L64.3133 24.3884C63.4498 24.0608 62.7428 23.5947 62.1811 22.9943L61.4509 23.6775ZM62.316 24.9999V23.3359H61.316V24.9999H62.316ZM57.336 25.4999H61.816V24.4999H57.336V25.4999ZM56.836 0.775879V24.9999H57.836V0.775879H56.836ZM62.136 0.275879H57.336V1.27588H62.136V0.275879ZM62.636 8.99988V0.775879H61.636V8.99988H62.636ZM67.16 6.64388C64.9447 6.64388 63.1324 7.29635 61.7825 8.64633L62.4896 9.35343C63.6143 8.22874 65.1513 7.64388 67.16 7.64388V6.64388ZM71.9303 7.93173C70.5036 7.07119 68.9093 6.64388 67.16 6.64388V7.64388C68.7387 7.64388 70.1524 8.02723 71.4138 8.78802L71.9303 7.93173ZM75.3057 11.3911C74.4746 9.94219 73.3479 8.78679 71.9303 7.93173L71.4138 8.78802C72.6842 9.5543 73.6908 10.5856 74.4383 11.8887L75.3057 11.3911ZM76.556 16.2639C76.556 14.4768 76.1418 12.8485 75.3057 11.3911L74.4383 11.8887C75.1809 13.1832 75.556 14.6377 75.556 16.2639H76.556ZM75.324 21.1167C76.1472 19.6508 76.556 18.0297 76.556 16.2639H75.556C75.556 17.8688 75.1862 19.3197 74.452 20.6271L75.324 21.1167ZM71.9623 24.596C73.3814 23.74 74.5035 22.5778 75.324 21.1167L74.452 20.6271C73.7152 21.9393 72.7146 22.9744 71.4458 23.7397L71.9623 24.596ZM63.0015 20.0759C63.9253 21.0718 65.1236 21.5639 66.552 21.5639V20.5639C65.3777 20.5639 64.4534 20.1706 63.7346 19.3958L63.0015 20.0759ZM61.636 16.2639C61.636 17.7947 62.079 19.0816 63.0015 20.0759L63.7346 19.3958C63.0144 18.6195 62.636 17.5917 62.636 16.2639H61.636ZM62.9994 12.47C62.0803 13.4727 61.636 14.7519 61.636 16.2639H62.636C62.636 14.9598 63.0131 13.935 63.7366 13.1457L62.9994 12.47ZM66.552 10.9639C65.1216 10.9639 63.9227 11.4628 62.9994 12.47L63.7366 13.1457C64.456 12.361 65.3797 11.9639 66.552 11.9639V10.9639ZM70.1801 12.4812C69.2259 11.4673 68.0029 10.9639 66.552 10.9639V11.9639C67.7464 11.9639 68.6995 12.3671 69.4519 13.1666L70.1801 12.4812ZM71.596 16.2639C71.596 14.7656 71.1309 13.4915 70.1801 12.4812L69.4519 13.1666C70.2077 13.9696 70.596 14.9889 70.596 16.2639H71.596ZM70.1781 20.0647C71.1323 19.0628 71.596 17.7811 71.596 16.2639H70.596C70.596 17.5626 70.2064 18.585 69.4539 19.3751L70.1781 20.0647ZM66.552 21.5639C68.001 21.5639 69.2233 21.0672 70.1781 20.0647L69.4539 19.3751C68.702 20.1646 67.7484 20.5639 66.552 20.5639V21.5639ZM84.28 25.8839C86.5676 25.8839 88.4531 25.173 89.8844 23.7186L89.1716 23.0172C87.9576 24.2508 86.3444 24.8839 84.28 24.8839V25.8839ZM79.5 24.4274C80.7132 25.4168 82.3251 25.8839 84.28 25.8839V24.8839C82.4803 24.8839 81.1161 24.455 80.132 23.6524L79.5 24.4274ZM77.668 20.3279C77.668 22.0375 78.2707 23.4248 79.5 24.4274L80.132 23.6524C79.164 22.8629 78.668 21.7756 78.668 20.3279H77.668ZM79.362 16.3151C78.2318 17.3747 77.668 18.7252 77.668 20.3279H78.668C78.668 18.9865 79.1282 17.9051 80.046 17.0446L79.362 16.3151ZM84.2954 14.2344C82.1535 14.5841 80.4866 15.2608 79.362 16.3151L80.046 17.0446C80.9694 16.179 82.4172 15.5543 84.4566 15.2213L84.2954 14.2344ZM89.1295 13.4661L84.2975 14.2341L84.4545 15.2217L89.2865 14.4537L89.1295 13.4661ZM88.708 13.4799V13.9599H89.708V13.4799H88.708ZM88.0986 12.1955C88.5156 12.553 88.708 12.9712 88.708 13.4799H89.708C89.708 12.6659 89.3777 11.9748 88.7494 11.4363L88.0986 12.1955ZM86.296 11.6439C87.1093 11.6439 87.691 11.8461 88.0986 12.1955L88.7494 11.4363C88.1117 10.8896 87.2747 10.6439 86.296 10.6439V11.6439ZM84.3325 12.2534C84.8924 11.8495 85.5406 11.6439 86.296 11.6439V10.6439C85.3448 10.6439 84.4889 10.9076 83.7475 11.4424L84.3325 12.2534ZM83.082 13.8851C83.3467 13.2045 83.7623 12.6647 84.3325 12.2534L83.7475 11.4424C83.0164 11.9697 82.4826 12.6673 82.15 13.5227L83.082 13.8851ZM78.5615 12.3315L82.4015 14.1555L82.8305 13.2522L78.9905 11.4282L78.5615 12.3315ZM81.3794 7.99716C79.8907 8.90628 78.8574 10.1471 78.3045 11.7135L79.2475 12.0463C79.7187 10.7113 80.5946 9.64815 81.9006 8.8506L81.3794 7.99716ZM86.52 6.64388C84.5846 6.64388 82.8653 7.08975 81.3794 7.99716L81.9006 8.8506C83.2094 8.05134 84.7434 7.64388 86.52 7.64388V6.64388ZM90.6373 7.49166C89.4291 6.92176 88.0528 6.64388 86.52 6.64388V7.64388C87.9312 7.64388 89.1576 7.89933 90.2107 8.39609L90.6373 7.49166ZM93.4808 9.89161C92.7961 8.85883 91.8423 8.06004 90.6373 7.49166L90.2107 8.3961C91.2671 8.89439 92.0733 9.57827 92.6473 10.4441L93.4808 9.89161ZM94.508 13.4799C94.508 12.1337 94.17 10.9314 93.4808 9.89161L92.6473 10.4441C93.2167 11.3031 93.508 12.3088 93.508 13.4799H94.508ZM94.508 24.9999V13.4799H93.508V24.9999H94.508ZM89.528 25.4999H94.008V24.4999H89.528V25.4999ZM89.028 23.3679V24.9999H90.028V23.3679H89.028ZM83.4394 21.8184C83.9458 22.1916 84.5564 22.3639 85.24 22.3639V21.3639C84.7289 21.3639 84.3369 21.2375 84.0326 21.0134L83.4394 21.8184ZM82.628 20.1679C82.628 20.8491 82.8976 21.4191 83.4394 21.8184L84.0326 21.0134C83.7638 20.8153 83.628 20.5534 83.628 20.1679H82.628ZM83.3475 18.4595C82.8503 18.8835 82.628 19.4789 82.628 20.1679H83.628C83.628 19.7048 83.7683 19.4149 83.9965 19.2203L83.3475 18.4595ZM85.1479 17.6924C84.4161 17.8297 83.8002 18.0734 83.3475 18.4595L83.9965 19.2203C84.2692 18.9877 84.6986 18.7941 85.3322 18.6753L85.1479 17.6924ZM89.1207 16.9876L85.1527 17.6916L85.3274 18.6762L89.2954 17.9722L89.1207 16.9876ZM89.708 18.0239V17.4799H88.708V18.0239H89.708ZM88.4786 21.0923C89.2971 20.2498 89.708 19.2171 89.708 18.0239H88.708C88.708 18.964 88.3936 19.7447 87.7614 20.3955L88.4786 21.0923ZM85.24 22.3639C86.548 22.3639 87.645 21.9504 88.4786 21.0923L87.7614 20.3955C87.1443 21.0307 86.3213 21.3639 85.24 21.3639V22.3639ZM102.828 24.9999V14.7919H101.828V24.9999H102.828ZM97.528 25.4999H102.328V24.4999H97.528V25.4999ZM97.028 7.52788V24.9999H98.028V7.52788H97.028ZM102.008 7.02788H97.528V8.02788H102.008V7.02788ZM102.508 9.67188V7.52788H101.508V9.67188H102.508ZM103.741 7.31844C102.79 7.78188 102.062 8.49336 101.565 9.43946L102.451 9.90429C102.85 9.14373 103.423 8.58588 104.179 8.21732L103.741 7.31844ZM106.904 6.64388C105.731 6.64388 104.673 6.864 103.741 7.31844L104.179 8.21732C104.954 7.83976 105.858 7.64388 106.904 7.64388V6.64388ZM110.62 7.53947C109.542 6.93672 108.298 6.64388 106.904 6.64388V7.64388C108.155 7.64388 109.226 7.9057 110.132 8.41229L110.62 7.53947ZM113.132 10.0519C112.533 8.97918 111.693 8.13925 110.62 7.53947L110.132 8.41229C111.043 8.92184 111.75 9.62858 112.26 10.5399L113.132 10.0519ZM114.028 13.7679C114.028 12.3739 113.735 11.1298 113.132 10.0519L112.26 10.5399C112.766 11.4459 113.028 12.5165 113.028 13.7679H114.028ZM114.028 24.9999V13.7679H113.028V24.9999H114.028ZM108.728 25.4999H113.528V24.4999H108.728V25.4999ZM108.228 14.7919V24.9999H109.228V14.7919H108.228ZM107.475 12.7263C107.965 13.2245 108.228 13.8955 108.228 14.7919H109.228C109.228 13.683 108.894 12.7433 108.189 12.0255L107.475 12.7263ZM105.528 11.9639C106.347 11.9639 106.982 12.2242 107.475 12.7263L108.189 12.0255C107.487 11.3116 106.586 10.9639 105.528 10.9639V11.9639ZM103.581 12.7263C104.074 12.2242 104.709 11.9639 105.528 11.9639V10.9639C104.47 10.9639 103.569 11.3116 102.867 12.0255L103.581 12.7263ZM102.828 14.7919C102.828 13.8955 103.091 13.2245 103.581 12.7263L102.867 12.0255C102.162 12.7433 101.828 13.683 101.828 14.7919H102.828Z" fill="black"/>
</svg>
